<svg data-v-423bf9ae="" xmlns="http://www.w3.org/2000/svg" viewBox="0 0 304 90" class="iconLeftSlogan"><!----><!----><!----><g data-v-423bf9ae="" id="c8ed4c4d-0d2f-4b7f-bc89-38943d6295d9" fill="#000000" transform="matrix(5.623242696436797,0,0,5.623242696436797,106.0637300583045,-19.28772210891443)"><path d="M1.05 11.09L1.72 12.93Q2.80 13.19 3.51 13.19L3.51 13.19Q3.88 13.19 4.24 13.11Q4.60 13.04 4.88 12.84Q5.17 12.65 5.34 12.34Q5.52 12.02 5.52 11.54L5.52 11.54Q5.52 11.22 5.43 10.95Q5.34 10.67 5.10 10.40Q4.87 10.12 4.46 9.84Q4.06 9.56 3.43 9.21L3.43 9.21Q2.75 8.85 2.25 8.51Q1.76 8.18 1.43 7.83Q1.11 7.47 0.95 7.06Q0.80 6.65 0.80 6.13L0.80 6.13Q0.80 3.55 4.02 3.55L4.02 3.55Q5.16 3.55 6.43 3.87L6.43 3.87L6.43 6.23L6.15 6.23L5.41 4.50Q4.68 4.35 4.10 4.35L4.10 4.35Q3.12 4.35 2.58 4.72Q2.03 5.09 2.03 5.87L2.03 5.87Q2.03 6.15 2.11 6.39Q2.18 6.64 2.41 6.90Q2.65 7.17 3.07 7.47Q3.49 7.77 4.18 8.16L4.18 8.16Q4.87 8.52 5.38 8.84Q5.89 9.15 6.22 9.48Q6.56 9.82 6.72 10.21Q6.89 10.60 6.89 11.11L6.89 11.11Q6.89 11.93 6.62 12.48Q6.34 13.03 5.88 13.37Q5.42 13.71 4.81 13.85Q4.19 13.99 3.51 13.99L3.51 13.99Q3.12 13.99 2.78 13.97Q2.44 13.95 2.11 13.89Q1.78 13.84 1.44 13.76Q1.10 13.67 0.70 13.56L0.70 13.56L0.70 11.09L1.05 11.09ZM15.63 13.82L8.43 13.82L8.43 13.54L9.69 13.05L9.69 4.51L8.43 4.02L8.43 3.74L13.99 3.74L15.29 3.56L15.50 3.74L15.50 6.49L15.22 6.49L14.35 4.47L11.02 4.47L11.02 8.32L13.86 8.18L14.12 8.28L13.99 9.19L11.02 9.08L11.02 13.10L14.49 13.10L15.35 11.08L15.63 11.08L15.63 13.82ZM24.46 11.01L24.46 13.82L17.18 13.82L17.18 13.54L18.44 13.05L18.44 4.51L17.18 4.02L17.18 3.74L21.03 3.74L21.03 4.02L19.84 4.51L19.84 13.02L23.31 13.02L24.18 11.01L24.46 11.01ZM30.37 14.10L30.37 14.10Q29.05 14.10 28.01 13.46Q26.97 12.82 26.38 11.61Q25.79 10.40 25.79 8.81L25.79 8.81Q25.79 7.62 26.16 6.61Q26.53 5.59 27.18 4.90Q27.82 4.21 28.69 3.82Q29.56 3.43 30.54 3.43L30.54 3.43Q31.52 3.43 32.36 3.82Q33.20 4.20 33.80 4.89Q34.40 5.58 34.74 6.59Q35.08 7.60 35.08 8.80L35.08 8.80Q35.08 9.99 34.71 10.99Q34.34 12.00 33.70 12.67Q33.07 13.35 32.20 13.73Q31.34 14.10 30.37 14.10ZM30.45 4.20L30.45 4.20Q29.49 4.20 28.76 4.80Q28.03 5.39 27.64 6.43Q27.25 7.47 27.25 8.81L27.25 8.81Q27.25 10.85 28.13 12.10Q29.00 13.36 30.45 13.36L30.45 13.36Q31.87 13.36 32.74 12.09Q33.61 10.83 33.61 8.80L33.61 8.80Q33.61 6.76 32.74 5.48Q31.86 4.20 30.45 4.20Z"></path></g><defs data-v-423bf9ae=""><linearGradient data-v-423bf9ae="" gradientTransform="rotate(25)" id="0188ef72-d7a8-4de9-a32f-411207005f67" x1="0%" y1="0%" x2="100%" y2="0%"><stop data-v-423bf9ae="" offset="0%" style="stop-color: rgb(0, 21, 214); stop-opacity: 1;"></stop><stop data-v-423bf9ae="" offset="100%" style="stop-color: rgb(9, 137, 251); stop-opacity: 1;"></stop></linearGradient></defs><g data-v-423bf9ae="" id="d9cfc458-7acd-4484-ab0c-0db028d4c994" transform="matrix(2.8125,0,0,2.8125,0,0)" stroke="none" fill="url(#0188ef72-d7a8-4de9-a32f-411207005f67)"><path d="M29.625 1l-3.099 3.172H4.054v23.657h22.472L29.625 31H1V1h28.625M32 0H0v32h32l-5.054-5.172H5.054V5.172h21.893L32 0z"></path><path d="M21.038 10.962v10.076H10.962V10.962h10.076m1-1H9.962v12.076h12.076V9.962z"></path></g><!----><g data-v-423bf9ae="" id="c074280f-01b5-4e86-b207-65e70412df08" fill="#000000" transform="matrix(0.6507138871330591,0,0,0.6507138871330591,109.7852676913174,56.271408750393725)"><path d="M2.24 6.19L2.24 14.03L3.47 14.03Q5.27 14.03 6.37 12.95Q7.46 11.87 7.46 10.12L7.46 10.12Q7.46 8.20 6.41 7.18Q5.36 6.16 3.42 6.16L3.42 6.16Q2.43 6.16 2.24 6.19L2.24 6.19ZM3.28 14.40L0.33 14.40L0.39 14.11L1.54 13.90L1.54 6.51L0.37 6.36L0.44 6.12Q2.52 5.79 3.68 5.79L3.68 5.79Q4.64 5.79 5.42 6.03Q6.19 6.26 6.71 6.66Q7.22 7.05 7.56 7.59Q7.90 8.13 8.05 8.71Q8.20 9.29 8.20 9.92L8.20 9.92Q8.20 10.64 8.03 11.28Q7.86 11.93 7.48 12.50Q7.10 13.08 6.53 13.49Q5.97 13.91 5.14 14.15Q4.31 14.40 3.28 14.40L3.28 14.40ZM17.14 6.36L15.92 6.18L15.97 5.89L22.16 5.89L21.95 8.07L21.64 8.03L21.51 6.24L17.86 6.24L17.86 9.89L20.15 9.89L20.40 8.94L20.77 8.89L20.54 11.55L20.19 11.61L20.08 10.26L17.86 10.26L17.86 14.03L21.70 14.03L22.20 12.19L22.48 12.26L22.28 14.40L15.94 14.40L15.98 14.11L17.14 13.90L17.14 6.36ZM31.42 6.36L30.19 6.18L30.24 5.89L36.44 5.89L36.22 8.07L35.91 8.03L35.78 6.24L32.13 6.24L32.13 9.89L34.42 9.89L34.67 8.94L35.04 8.89L34.82 11.55L34.47 11.61L34.36 10.26L32.13 10.26L32.13 14.03L35.97 14.03L36.48 12.19L36.76 12.26L36.55 14.40L30.21 14.40L30.26 14.11L31.42 13.90L31.42 6.36ZM47.88 14.40L44.47 14.40L44.50 14.11L45.58 13.90L45.58 6.51L44.47 6.36L44.54 6.12Q44.71 6.09 45.15 6.02Q45.60 5.94 45.83 5.91Q46.06 5.88 46.47 5.84Q46.88 5.81 47.30 5.81L47.30 5.81Q47.99 5.81 48.58 5.96Q49.16 6.10 49.63 6.40Q50.09 6.69 50.35 7.18Q50.61 7.66 50.61 8.29L50.61 8.29Q50.61 8.90 50.33 9.43Q50.05 9.97 49.58 10.33Q49.12 10.69 48.52 10.90Q47.92 11.10 47.28 11.10L47.28 11.10Q47.01 11.10 46.94 11.09L46.94 11.09L46.87 10.80L47.24 10.78Q47.91 10.75 48.40 10.55Q48.90 10.36 49.19 10.03Q49.48 9.70 49.62 9.30Q49.76 8.90 49.76 8.43L49.76 8.43Q49.76 7.98 49.59 7.57Q49.42 7.16 49.10 6.83Q48.78 6.50 48.26 6.31Q47.74 6.11 47.09 6.11L47.09 6.11L46.33 6.15L46.33 13.95L47.93 14.08L47.88 14.40ZM69.37 6.33L68.19 6.16L68.23 5.89L71.35 5.89L71.31 6.16L70.11 6.32L70.11 13.95L71.43 14.08L71.37 14.40L68.26 14.40L68.29 14.11L69.37 13.90L69.37 6.33ZM80.38 6.36L79.12 6.14L79.17 5.89L81.25 5.89L85.97 13.17L85.97 6.33L84.72 6.16L84.76 5.89L87.66 5.89L87.60 6.16L86.47 6.32L86.47 14.44L86.10 14.52L80.89 6.65L80.89 13.95L82.15 14.08L82.08 14.40L79.20 14.40L79.24 14.11L80.38 13.90L80.38 6.36ZM105.31 8.09L105.25 5.89L112.31 5.89L112.07 8.16L111.73 8.12L111.61 6.24L109.07 6.24L109.07 13.90L110.28 14.08L110.21 14.40L107.11 14.40L107.15 14.11L108.34 13.90L108.34 6.24L105.91 6.24L105.67 8.15L105.31 8.09ZM121.24 6.33L120.01 6.16L120.03 5.89L123.15 5.89L123.12 6.16L121.96 6.32L121.96 9.95L126.87 9.95L126.87 6.33L125.61 6.16L125.66 5.89L128.77 5.89L128.71 6.16L127.57 6.32L127.57 13.95L128.82 14.08L128.78 14.40L125.68 14.40L125.73 14.11L126.87 13.90L126.87 10.36L121.96 10.36L121.96 13.95L123.23 14.08L123.16 14.40L120.07 14.40L120.10 14.11L121.24 13.90L121.24 6.33ZM137.76 6.36L136.53 6.18L136.58 5.89L142.78 5.89L142.56 8.07L142.25 8.03L142.12 6.24L138.47 6.24L138.47 9.89L140.76 9.89L141.01 8.94L141.38 8.89L141.16 11.55L140.81 11.61L140.70 10.26L138.47 10.26L138.47 14.03L142.31 14.03L142.82 12.19L143.10 12.26L142.89 14.40L136.55 14.40L136.60 14.11L137.76 13.90L137.76 6.36ZM161.94 6.33L160.71 6.16L160.73 5.89L163.85 5.89L163.82 6.16L162.66 6.32L162.66 9.95L167.57 9.95L167.57 6.33L166.31 6.16L166.36 5.89L169.47 5.89L169.42 6.16L168.27 6.32L168.27 13.95L169.52 14.08L169.48 14.40L166.38 14.40L166.43 14.11L167.57 13.90L167.57 10.36L162.66 10.36L162.66 13.95L163.93 14.08L163.86 14.40L160.77 14.40L160.80 14.11L161.94 13.90L161.94 6.33ZM178.46 6.36L177.24 6.18L177.28 5.89L183.48 5.89L183.26 8.07L182.95 8.03L182.82 6.24L179.17 6.24L179.17 9.89L181.46 9.89L181.71 8.94L182.08 8.89L181.86 11.55L181.51 11.61L181.40 10.26L179.17 10.26L179.17 14.03L183.01 14.03L183.52 12.19L183.80 12.26L183.59 14.40L177.26 14.40L177.30 14.11L178.46 13.90L178.46 6.36ZM195.57 6.98L194.20 10.75L196.89 10.75L195.57 6.98ZM194.25 14.40L191.52 14.40L191.56 14.11L192.53 13.90L195.52 5.82L195.88 5.73L198.72 13.95L199.62 14.08L199.57 14.39L196.77 14.39L196.83 14.10L197.97 13.90L197.02 11.13L194.07 11.13L193.05 13.95L194.31 14.08L194.25 14.40ZM209.13 6.18L209.13 10.11L210.68 10.11Q211.37 9.86 211.83 9.28Q212.28 8.70 212.28 8.02L212.28 8.02Q212.28 7.11 211.66 6.63Q211.05 6.15 209.96 6.15L209.96 6.15L209.13 6.18ZM210.51 14.40L207.31 14.40L207.36 14.11L208.43 13.90L208.43 6.51L207.33 6.37L207.40 6.13Q209.22 5.83 210.30 5.83L210.30 5.83Q211.07 5.83 211.67 6.05Q212.28 6.27 212.66 6.73Q213.04 7.19 213.04 7.83L213.04 7.83Q213.04 8.57 212.61 9.14Q212.18 9.72 211.15 10.23L211.15 10.23L211.15 10.23L212.47 12.19Q213.18 13.23 213.52 13.58Q213.87 13.92 214.25 14.05L214.25 14.05L214.58 14.16L214.54 14.42Q214.25 14.52 213.90 14.52L213.90 14.52Q213.62 14.52 213.36 14.40Q213.11 14.28 212.87 14.01Q212.63 13.75 212.44 13.48Q212.26 13.22 211.98 12.77L211.98 12.77L210.59 10.49L209.13 10.49L209.13 13.95L210.57 14.08L210.51 14.40ZM222.33 8.09L222.26 5.89L229.33 5.89L229.09 8.16L228.74 8.12L228.63 6.24L226.09 6.24L226.09 13.90L227.30 14.08L227.23 14.40L224.13 14.40L224.16 14.11L225.36 13.90L225.36 6.24L222.93 6.24L222.69 8.15L222.33 8.09ZM237.15 13.92L237.15 13.92Q237.15 13.25 237.58 13.25Q238.01 13.25 238.01 13.92L238.01 13.92Q238.01 14.62 237.58 14.62Q237.15 14.62 237.15 13.92Z"></path></g></svg>